<?xml version="1.0" encoding="UTF-8"?><svg xmlns="http://www.w3.org/2000/svg" xmlns:xlink="http://www.w3.org/1999/xlink" fill-opacity="1" color-rendering="auto" color-interpolation="auto" text-rendering="auto" stroke="black" stroke-linecap="square" width="696" stroke-miterlimit="10" shape-rendering="auto" stroke-opacity="1" fill="black" stroke-dasharray="none" font-weight="normal" stroke-width="1" height="263" font-family="'Dialog'" font-style="normal" stroke-linejoin="miter" font-size="12px" stroke-dashoffset="0" image-rendering="auto">
  <!--Generated by ySVG 2.5-->
  <defs id="genericDefs"/>
  <g>
    <defs id="defs1">
      <clipPath clipPathUnits="userSpaceOnUse" id="clipPath1">
        <path d="M0 0 L696 0 L696 263 L0 263 L0 0 Z"/>
      </clipPath>
      <clipPath clipPathUnits="userSpaceOnUse" id="clipPath2">
        <path d="M281 296 L977 296 L977 559 L281 559 L281 296 Z"/>
      </clipPath>
    </defs>
    <g fill="white" text-rendering="geometricPrecision" shape-rendering="geometricPrecision" transform="translate(-281,-296)" stroke="white">
      <rect x="281" width="696" height="263" y="296" clip-path="url(#clipPath2)" stroke="none"/>
    </g>
    <g text-rendering="geometricPrecision" stroke-miterlimit="1.45" shape-rendering="geometricPrecision" transform="matrix(1,0,0,1,-281,-296)" stroke-linecap="butt">
      <rect fill="none" x="296" width="414" height="36" y="341" clip-path="url(#clipPath2)"/>
      <text x="436.5635" xml:space="preserve" y="363.5352" clip-path="url(#clipPath2)" font-family="sans-serif" stroke="none">Experimental feedback</text>
      <rect fill="none" x="710" width="252" height="108" y="341" clip-path="url(#clipPath2)"/>
      <text x="759.4561" xml:space="preserve" y="399.5352" clip-path="url(#clipPath2)" font-family="sans-serif" stroke="none">No experimental feedback</text>
      <rect fill="none" x="296" width="666" height="30" y="311" clip-path="url(#clipPath2)"/>
      <text x="570.916" xml:space="preserve" y="330.5352" clip-path="url(#clipPath2)" font-family="sans-serif" stroke="none">Scientific Workflows</text>
      <rect fill="none" x="296" width="219" height="36" y="377" clip-path="url(#clipPath2)"/>
      <text x="375.1924" xml:space="preserve" y="399.5352" clip-path="url(#clipPath2)" font-family="sans-serif" stroke="none">Interactive</text>
      <rect fill="none" x="515" width="195" height="36" y="377" clip-path="url(#clipPath2)"/>
      <text x="571.3145" xml:space="preserve" y="399.5352" clip-path="url(#clipPath2)" font-family="sans-serif" stroke="none">Asynchronous</text>
      <rect fill="none" x="296" width="120" height="36" y="413" clip-path="url(#clipPath2)"/>
      <text x="322.584" xml:space="preserve" y="435.5352" clip-path="url(#clipPath2)" font-family="sans-serif" stroke="none">Exploratory</text>
      <rect fill="none" x="416" width="99" height="36" y="413" clip-path="url(#clipPath2)"/>
      <text x="441.623" xml:space="preserve" y="435.5352" clip-path="url(#clipPath2)" font-family="sans-serif" stroke="none">Focused</text>
      <rect fill="none" x="515" width="120" height="36" y="413" clip-path="url(#clipPath2)"/>
      <text x="541.584" xml:space="preserve" y="435.5352" clip-path="url(#clipPath2)" font-family="sans-serif" stroke="none">Exploratory</text>
      <rect fill="none" x="635" width="75" height="36" y="413" clip-path="url(#clipPath2)"/>
      <text x="648.623" xml:space="preserve" y="435.5352" clip-path="url(#clipPath2)" font-family="sans-serif" stroke="none">Focused</text>
      <text x="360.5889" xml:space="preserve" y="530.5352" clip-path="url(#clipPath2)" font-family="sans-serif" stroke="none">Projects often move between exploratory and focused</text>
      <path fill="none" d="M356 457 L356 505 L465.5 505 L465.5 457" clip-path="url(#clipPath2)"/>
      <path d="M356 449 L351 461 L356 458 L361 461 Z" clip-path="url(#clipPath2)" stroke="none"/>
      <path d="M465.5 449 L460.5 461 L465.5 458 L470.5 461 Z" clip-path="url(#clipPath2)" stroke="none"/>
      <path fill="none" d="M575 457 L575 503 L672.5 503 L672.5 457" clip-path="url(#clipPath2)"/>
      <path d="M575 449 L570 461 L575 458 L580 461 Z" clip-path="url(#clipPath2)" stroke="none"/>
      <path d="M672.5 449 L667.5 461 L672.5 458 L677.5 461 Z" clip-path="url(#clipPath2)" stroke="none"/>
    </g>
  </g>
</svg>
