<?xml version="1.0" encoding="UTF-8"?><svg xmlns="http://www.w3.org/2000/svg" xmlns:xlink="http://www.w3.org/1999/xlink" fill-opacity="1" color-rendering="auto" color-interpolation="auto" text-rendering="auto" stroke="black" stroke-linecap="square" width="810" stroke-miterlimit="10" shape-rendering="auto" stroke-opacity="1" fill="black" stroke-dasharray="none" font-weight="normal" stroke-width="1" height="152" font-family="'Dialog'" font-style="normal" stroke-linejoin="miter" font-size="12px" stroke-dashoffset="0" image-rendering="auto">
  <!--Generated by ySVG 2.5-->
  <defs id="genericDefs"/>
  <g>
    <defs id="defs1">
      <clipPath clipPathUnits="userSpaceOnUse" id="clipPath1">
        <path d="M0 0 L810 0 L810 152 L0 152 L0 0 Z"/>
      </clipPath>
      <clipPath clipPathUnits="userSpaceOnUse" id="clipPath2">
        <path d="M240 352 L1050 352 L1050 504 L240 504 L240 352 Z"/>
      </clipPath>
    </defs>
    <g fill="white" text-rendering="geometricPrecision" shape-rendering="geometricPrecision" transform="translate(-240,-352)" stroke="white">
      <rect x="240" width="810" height="152" y="352" clip-path="url(#clipPath2)" stroke="none"/>
    </g>
    <g text-rendering="geometricPrecision" stroke-miterlimit="1.45" shape-rendering="geometricPrecision" transform="matrix(1,0,0,1,-240,-352)" stroke-linecap="butt">
      <rect fill="none" x="418" width="113" height="23" y="466" clip-path="url(#clipPath2)"/>
      <text x="425.0791" xml:space="preserve" y="482.0352" clip-path="url(#clipPath2)" font-family="sans-serif" stroke="none">Craft Experiment</text>
      <rect fill="none" x="581" width="113" height="23" y="466" clip-path="url(#clipPath2)"/>
      <text x="594.2695" xml:space="preserve" y="482.0352" clip-path="url(#clipPath2)" font-family="sans-serif" stroke="none">Do Experiment</text>
      <rect fill="none" x="744" width="113" height="23" y="466" clip-path="url(#clipPath2)"/>
      <text x="754.8174" xml:space="preserve" y="482.0352" clip-path="url(#clipPath2)" font-family="sans-serif" stroke="none">Analyze Results</text>
      <rect fill="none" x="907" width="128" height="23" y="466" clip-path="url(#clipPath2)"/>
      <text x="910.9619" xml:space="preserve" y="482.0352" clip-path="url(#clipPath2)" font-family="sans-serif" stroke="none">Publish/Post/Output</text>
      <rect fill="none" x="255" width="113" height="23" y="466" clip-path="url(#clipPath2)"/>
      <text x="281.2275" xml:space="preserve" y="482.0352" clip-path="url(#clipPath2)" font-family="sans-serif" stroke="none">Initial Idea</text>
      <rect fill="none" x="581" width="113" height="23" y="367" clip-path="url(#clipPath2)"/>
      <text x="605.2969" xml:space="preserve" y="383.0352" clip-path="url(#clipPath2)" font-family="sans-serif" stroke="none">Refine Idea</text>
      <path fill="none" d="M531 477.5 L573 477.5" clip-path="url(#clipPath2)"/>
      <path d="M581 477.5 L569 472.5 L572 477.5 L569 482.5 Z" clip-path="url(#clipPath2)" stroke="none"/>
      <path fill="none" d="M694 477.5 L736 477.5" clip-path="url(#clipPath2)"/>
      <path d="M744 477.5 L732 472.5 L735 477.5 L732 482.5 Z" clip-path="url(#clipPath2)" stroke="none"/>
      <path fill="none" d="M857 477.5 L899 477.5" clip-path="url(#clipPath2)"/>
      <path d="M907 477.5 L895 472.5 L898 477.5 L895 482.5 Z" clip-path="url(#clipPath2)" stroke="none"/>
      <path fill="none" d="M368 477.5 L410 477.5" clip-path="url(#clipPath2)"/>
      <path d="M418 477.5 L406 472.5 L409 477.5 L406 482.5 Z" clip-path="url(#clipPath2)" stroke="none"/>
      <path fill="none" d="M800.5 466 L800.5 378.5 L702 378.5" clip-path="url(#clipPath2)"/>
      <path d="M694 378.5 L706 383.5 L703 378.5 L706 373.5 Z" clip-path="url(#clipPath2)" stroke="none"/>
      <path fill="none" d="M581 378.5 L474.5 378.5 L474.5 458" clip-path="url(#clipPath2)"/>
      <path d="M474.5 466 L479.5 454 L474.5 457 L469.5 454 Z" clip-path="url(#clipPath2)" stroke="none"/>
    </g>
  </g>
</svg>
