<?xml version="1.0" encoding="UTF-8" standalone="no"?>
<!-- Created with Inkscape (http://www.inkscape.org/) -->

<svg
   xmlns:dc="http://purl.org/dc/elements/1.1/"
   xmlns:cc="http://creativecommons.org/ns#"
   xmlns:rdf="http://www.w3.org/1999/02/22-rdf-syntax-ns#"
   xmlns:svg="http://www.w3.org/2000/svg"
   xmlns="http://www.w3.org/2000/svg"
   xmlns:sodipodi="http://sodipodi.sourceforge.net/DTD/sodipodi-0.dtd"
   xmlns:inkscape="http://www.inkscape.org/namespaces/inkscape"
   width="219.56297"
   height="209.813"
   id="svg2"
   version="1.1"
   inkscape:version="0.47 r22583"
   sodipodi:docname="poles.svg">
  <defs
     id="defs4">
    <inkscape:perspective
       sodipodi:type="inkscape:persp3d"
       inkscape:vp_x="0 : 526.18109 : 1"
       inkscape:vp_y="0 : 1000 : 0"
       inkscape:vp_z="744.09448 : 526.18109 : 1"
       inkscape:persp3d-origin="372.04724 : 350.78739 : 1"
       id="perspective10" />
    <inkscape:perspective
       id="perspective2828"
       inkscape:persp3d-origin="0.5 : 0.33333333 : 1"
       inkscape:vp_z="1 : 0.5 : 1"
       inkscape:vp_y="0 : 1000 : 0"
       inkscape:vp_x="0 : 0.5 : 1"
       sodipodi:type="inkscape:persp3d" />
    <inkscape:perspective
       id="perspective2828-6"
       inkscape:persp3d-origin="0.5 : 0.33333333 : 1"
       inkscape:vp_z="1 : 0.5 : 1"
       inkscape:vp_y="0 : 1000 : 0"
       inkscape:vp_x="0 : 0.5 : 1"
       sodipodi:type="inkscape:persp3d" />
  </defs>
  <sodipodi:namedview
     id="base"
     pagecolor="#ffffff"
     bordercolor="#666666"
     borderopacity="1.0"
     inkscape:pageopacity="0.0"
     inkscape:pageshadow="2"
     inkscape:zoom="2"
     inkscape:cx="160.313"
     inkscape:cy="110.07264"
     inkscape:document-units="px"
     inkscape:current-layer="layer1"
     showgrid="false"
     guidetolerance="10000"
     objecttolerance="10000"
     inkscape:snap-object-midpoints="true"
     inkscape:snap-midpoints="true"
     inkscape:snap-center="true"
     inkscape:snap-nodes="true"
     inkscape:window-width="1920"
     inkscape:window-height="1174"
     inkscape:window-x="0"
     inkscape:window-y="0"
     inkscape:window-maximized="1" />
  <metadata
     id="metadata7">
    <rdf:RDF>
      <cc:Work
         rdf:about="">
        <dc:format>image/svg+xml</dc:format>
        <dc:type
           rdf:resource="http://purl.org/dc/dcmitype/StillImage" />
      </cc:Work>
    </rdf:RDF>
  </metadata>
  <g
     inkscape:label="Layer 1"
     inkscape:groupmode="layer"
     id="layer1"
     transform="translate(-116.437,-464.04913)">
    <path
       sodipodi:type="arc"
       style="fill:#000000;fill-opacity:1;stroke:#000000;stroke-width:1.12600005;stroke-miterlimit:4;stroke-dasharray:none;stroke-dashoffset:0"
       id="path2818"
       sodipodi:cx="124"
       sodipodi:cy="571.36218"
       sodipodi:rx="7"
       sodipodi:ry="7"
       d="m 131,571.36218 c 0,3.866 -3.13401,7 -7,7 -3.86599,0 -7,-3.134 -7,-7 0,-3.86599 3.13401,-7 7,-7 3.86599,0 7,3.13401 7,7 z" />
    <path
       sodipodi:type="arc"
       style="fill:#000000;fill-opacity:1;stroke:#000000;stroke-width:1.12600005;stroke-miterlimit:4;stroke-dasharray:none;stroke-dashoffset:0"
       id="path2818-4"
       sodipodi:cx="124"
       sodipodi:cy="571.36218"
       sodipodi:rx="7"
       sodipodi:ry="7"
       d="m 131,571.36218 c 0,3.866 -3.13401,7 -7,7 -3.86599,0 -7,-3.134 -7,-7 0,-3.86599 3.13401,-7 7,-7 3.86599,0 7,3.13401 7,7 z"
       transform="translate(154.74998,-99.75005)" />
    <path
       sodipodi:type="arc"
       style="fill:none;stroke:#000000;stroke-opacity:1"
       id="path3635"
       sodipodi:cx="164.75"
       sodipodi:cy="464.11218"
       sodipodi:rx="63.75"
       sodipodi:ry="63.75"
       d="m 228.5,464.11218 c 0,35.20816 -28.54185,63.75 -63.75,63.75 -35.20815,0 -63.75,-28.54184 -63.75,-63.75 0,-35.20815 28.54185,-63.75 63.75,-63.75 35.20815,0 63.75,28.54185 63.75,63.75 z"
       transform="matrix(1.5914396,0,0,1.5914396,-28.439691,-166.99437)" />
    <path
       sodipodi:type="arc"
       style="fill:#000000;fill-opacity:1;stroke:#000000;stroke-width:1.12600005;stroke-miterlimit:4;stroke-opacity:1;stroke-dasharray:none;stroke-dashoffset:0"
       id="path3639"
       sodipodi:cx="247"
       sodipodi:cy="560.86218"
       sodipodi:rx="2"
       sodipodi:ry="2"
       d="m 249,560.86218 c 0,1.10457 -0.89543,2 -2,2 -1.10457,0 -2,-0.89543 -2,-2 0,-1.10457 0.89543,-2 2,-2 1.10457,0 2,0.89543 2,2 z"
       transform="translate(-11.250017,10.749954)" />
  </g>
</svg>
