<?xml version="1.0" encoding="UTF-8"?><svg xmlns="http://www.w3.org/2000/svg" xmlns:xlink="http://www.w3.org/1999/xlink" fill-opacity="1" color-rendering="auto" color-interpolation="auto" text-rendering="auto" stroke="black" stroke-linecap="square" width="667" stroke-miterlimit="10" shape-rendering="auto" stroke-opacity="1" fill="black" stroke-dasharray="none" font-weight="normal" stroke-width="1" height="324" font-family="'Dialog'" font-style="normal" stroke-linejoin="miter" font-size="12px" stroke-dashoffset="0" image-rendering="auto">
  <!--Generated by ySVG 2.5-->
  <defs id="genericDefs"/>
  <g>
    <defs id="defs1">
      <clipPath clipPathUnits="userSpaceOnUse" id="clipPath1">
        <path d="M0 0 L667 0 L667 324 L0 324 L0 0 Z"/>
      </clipPath>
      <clipPath clipPathUnits="userSpaceOnUse" id="clipPath2">
        <path d="M43 157 L710 157 L710 481 L43 481 L43 157 Z"/>
      </clipPath>
    </defs>
    <g fill="white" text-rendering="geometricPrecision" shape-rendering="geometricPrecision" transform="translate(-43,-157)" stroke="white">
      <rect x="43" width="667" height="324" y="157" clip-path="url(#clipPath2)" stroke="none"/>
    </g>
    <g fill="rgb(255,204,0)" text-rendering="geometricPrecision" shape-rendering="geometricPrecision" transform="matrix(1,0,0,1,-43,-157)" stroke="rgb(255,204,0)">
      <rect x="348" width="104" height="87" y="172" clip-path="url(#clipPath2)" stroke="none"/>
    </g>
    <g text-rendering="geometricPrecision" stroke-miterlimit="1.45" shape-rendering="geometricPrecision" transform="matrix(1,0,0,1,-43,-157)" stroke-linecap="butt">
      <rect fill="none" x="348" width="104" height="87" y="172" clip-path="url(#clipPath2)"/>
      <text x="381.332" xml:space="preserve" y="220.0352" clip-path="url(#clipPath2)" font-family="sans-serif" stroke="none">Minter</text>
    </g>
    <g fill="rgb(255,204,0)" text-rendering="geometricPrecision" shape-rendering="geometricPrecision" transform="matrix(1,0,0,1,-43,-157)" stroke="rgb(255,204,0)">
      <rect x="58" width="71" height="66" y="182.5" clip-path="url(#clipPath2)" stroke="none"/>
    </g>
    <g text-rendering="geometricPrecision" stroke-miterlimit="1.45" shape-rendering="geometricPrecision" transform="matrix(1,0,0,1,-43,-157)" stroke-linecap="butt">
      <rect fill="none" x="58" width="71" height="66" y="182.5" clip-path="url(#clipPath2)"/>
      <text x="70.1562" xml:space="preserve" y="220.0352" clip-path="url(#clipPath2)" font-family="sans-serif" stroke="none">Investor</text>
    </g>
    <g fill="rgb(255,204,0)" text-rendering="geometricPrecision" shape-rendering="geometricPrecision" transform="matrix(1,0,0,1,-43,-157)" stroke="rgb(255,204,0)">
      <rect x="591" width="104" height="87" y="172" clip-path="url(#clipPath2)" stroke="none"/>
    </g>
    <g text-rendering="geometricPrecision" stroke-miterlimit="1.45" shape-rendering="geometricPrecision" transform="matrix(1,0,0,1,-43,-157)" stroke-linecap="butt">
      <rect fill="none" x="591" width="104" height="87" y="172" clip-path="url(#clipPath2)"/>
      <text x="594.1562" xml:space="preserve" y="220.0352" clip-path="url(#clipPath2)" font-family="sans-serif" stroke="none">US Bank Account</text>
    </g>
    <g fill="rgb(255,204,0)" text-rendering="geometricPrecision" shape-rendering="geometricPrecision" transform="matrix(1,0,0,1,-43,-157)" stroke="rgb(255,204,0)">
      <rect x="348" width="104" height="87" y="379" clip-path="url(#clipPath2)" stroke="none"/>
    </g>
    <g text-rendering="geometricPrecision" stroke-miterlimit="1.45" shape-rendering="geometricPrecision" transform="matrix(1,0,0,1,-43,-157)" stroke-linecap="butt">
      <rect fill="none" x="348" width="104" height="87" y="379" clip-path="url(#clipPath2)"/>
      <text x="381.332" xml:space="preserve" y="427.0352" clip-path="url(#clipPath2)" font-family="sans-serif" stroke="none">Minter</text>
    </g>
    <g fill="rgb(255,204,0)" text-rendering="geometricPrecision" shape-rendering="geometricPrecision" transform="matrix(1,0,0,1,-43,-157)" stroke="rgb(255,204,0)">
      <rect x="591" width="104" height="87" y="379" clip-path="url(#clipPath2)" stroke="none"/>
    </g>
    <g text-rendering="geometricPrecision" stroke-miterlimit="1.45" shape-rendering="geometricPrecision" transform="matrix(1,0,0,1,-43,-157)" stroke-linecap="butt">
      <rect fill="none" x="591" width="104" height="87" y="379" clip-path="url(#clipPath2)"/>
      <text x="594.1562" xml:space="preserve" y="427.0352" clip-path="url(#clipPath2)" font-family="sans-serif" stroke="none">US Bank Account</text>
    </g>
    <g fill="rgb(255,204,0)" text-rendering="geometricPrecision" shape-rendering="geometricPrecision" transform="matrix(1,0,0,1,-43,-157)" stroke="rgb(255,204,0)">
      <rect x="58" width="71" height="66" y="389.5" clip-path="url(#clipPath2)" stroke="none"/>
    </g>
    <g text-rendering="geometricPrecision" stroke-miterlimit="1.45" shape-rendering="geometricPrecision" transform="matrix(1,0,0,1,-43,-157)" stroke-linecap="butt">
      <rect fill="none" x="58" width="71" height="66" y="389.5" clip-path="url(#clipPath2)"/>
      <text x="70.1562" xml:space="preserve" y="427.0352" clip-path="url(#clipPath2)" font-family="sans-serif" stroke="none">Investor</text>
      <path fill="none" d="M348 215.5 L137 215.5" clip-path="url(#clipPath2)"/>
      <path d="M129 215.5 L141 220.5 L138 215.5 L141 210.5 Z" clip-path="url(#clipPath2)" stroke="none"/>
      <path fill="none" d="M129 215.5 L340 215.5" clip-path="url(#clipPath2)"/>
      <path d="M348 215.5 L336 210.5 L339 215.5 L336 220.5 Z" clip-path="url(#clipPath2)" stroke="none"/>
      <text x="165.484" xml:space="preserve" y="190.0352" clip-path="url(#clipPath2)" font-family="sans-serif" stroke="none">Send USD, receive StableCoin</text>
      <path fill="none" d="M452 215.5 L583 215.5" clip-path="url(#clipPath2)"/>
      <path d="M591 215.5 L579 210.5 L582 215.5 L579 220.5 Z" clip-path="url(#clipPath2)" stroke="none"/>
      <text x="490.5156" xml:space="preserve" y="190.0352" clip-path="url(#clipPath2)" font-family="sans-serif" stroke="none">Invest USD</text>
      <path fill="none" d="M591 422.5 L460 422.5" clip-path="url(#clipPath2)"/>
      <path d="M452 422.5 L464 427.5 L461 422.5 L464 417.5 Z" clip-path="url(#clipPath2)" stroke="none"/>
      <text x="480.7158" xml:space="preserve" y="397.0352" clip-path="url(#clipPath2)" font-family="sans-serif" stroke="none">Withdraw USD</text>
      <path fill="none" d="M348 422.5 L136.9847 422.5" clip-path="url(#clipPath2)"/>
      <path d="M128.9847 422.5 L140.9847 427.5 L137.9847 422.5 L140.9847 417.5 Z" clip-path="url(#clipPath2)" stroke="none"/>
      <path fill="none" d="M129 422.5 L340 422.5" clip-path="url(#clipPath2)"/>
      <path d="M348 422.5 L336 417.5 L339 422.5 L336 427.5 Z" clip-path="url(#clipPath2)" stroke="none"/>
      <text x="153.6152" xml:space="preserve" y="397.0352" clip-path="url(#clipPath2)" font-family="sans-serif" stroke="none">Send StableCoin, receive USD</text>
    </g>
  </g>
</svg>
