<?xml version="1.0" encoding="UTF-8"?><svg xmlns="http://www.w3.org/2000/svg" xmlns:xlink="http://www.w3.org/1999/xlink" fill-opacity="1" color-rendering="auto" color-interpolation="auto" text-rendering="auto" stroke="black" stroke-linecap="square" width="805" stroke-miterlimit="10" shape-rendering="auto" stroke-opacity="1" fill="black" stroke-dasharray="none" font-weight="normal" stroke-width="1" height="324" font-family="'Dialog'" font-style="normal" stroke-linejoin="miter" font-size="12px" stroke-dashoffset="0" image-rendering="auto">
  <!--Generated by ySVG 2.5-->
  <defs id="genericDefs"/>
  <g>
    <defs id="defs1">
      <clipPath clipPathUnits="userSpaceOnUse" id="clipPath1">
        <path d="M0 0 L805 0 L805 324 L0 324 L0 0 Z"/>
      </clipPath>
      <clipPath clipPathUnits="userSpaceOnUse" id="clipPath2">
        <path d="M60 182 L865 182 L865 506 L60 506 L60 182 Z"/>
      </clipPath>
    </defs>
    <g fill="white" text-rendering="geometricPrecision" shape-rendering="geometricPrecision" transform="translate(-60,-182)" stroke="white">
      <rect x="60" width="805" height="324" y="182" clip-path="url(#clipPath2)" stroke="none"/>
    </g>
    <g fill="rgb(255,204,0)" text-rendering="geometricPrecision" shape-rendering="geometricPrecision" transform="matrix(1,0,0,1,-60,-182)" stroke="rgb(255,204,0)">
      <rect x="373" width="104" height="87" y="197" clip-path="url(#clipPath2)" stroke="none"/>
    </g>
    <g text-rendering="geometricPrecision" stroke-miterlimit="1.45" shape-rendering="geometricPrecision" transform="matrix(1,0,0,1,-60,-182)" stroke-linecap="butt">
      <rect fill="none" x="373" width="104" height="87" y="197" clip-path="url(#clipPath2)"/>
      <text x="406.332" xml:space="preserve" y="245.0352" clip-path="url(#clipPath2)" font-family="sans-serif" stroke="none">Minter</text>
    </g>
    <g fill="rgb(255,204,0)" text-rendering="geometricPrecision" shape-rendering="geometricPrecision" transform="matrix(1,0,0,1,-60,-182)" stroke="rgb(255,204,0)">
      <rect x="75" width="71" height="66" y="207.5" clip-path="url(#clipPath2)" stroke="none"/>
    </g>
    <g text-rendering="geometricPrecision" stroke-miterlimit="1.45" shape-rendering="geometricPrecision" transform="matrix(1,0,0,1,-60,-182)" stroke-linecap="butt">
      <rect fill="none" x="75" width="71" height="66" y="207.5" clip-path="url(#clipPath2)"/>
      <text x="87.1562" xml:space="preserve" y="245.0352" clip-path="url(#clipPath2)" font-family="sans-serif" stroke="none">Investor</text>
    </g>
    <g fill="rgb(255,204,0)" text-rendering="geometricPrecision" shape-rendering="geometricPrecision" transform="matrix(1,0,0,1,-60,-182)" stroke="rgb(255,204,0)">
      <rect x="616" width="234" height="87" y="197" clip-path="url(#clipPath2)" stroke="none"/>
    </g>
    <g text-rendering="geometricPrecision" stroke-miterlimit="1.45" shape-rendering="geometricPrecision" transform="matrix(1,0,0,1,-60,-182)" stroke-linecap="butt">
      <rect fill="none" x="616" width="234" height="87" y="197" clip-path="url(#clipPath2)"/>
      <text x="626.9746" xml:space="preserve" y="245.0352" clip-path="url(#clipPath2)" font-family="sans-serif" stroke="none">High-risk mix of equities and bonds</text>
    </g>
    <g fill="rgb(255,204,0)" text-rendering="geometricPrecision" shape-rendering="geometricPrecision" transform="matrix(1,0,0,1,-60,-182)" stroke="rgb(255,204,0)">
      <rect x="373" width="104" height="87" y="404" clip-path="url(#clipPath2)" stroke="none"/>
    </g>
    <g text-rendering="geometricPrecision" stroke-miterlimit="1.45" shape-rendering="geometricPrecision" transform="matrix(1,0,0,1,-60,-182)" stroke-linecap="butt">
      <rect fill="none" x="373" width="104" height="87" y="404" clip-path="url(#clipPath2)"/>
      <text x="406.332" xml:space="preserve" y="452.0352" clip-path="url(#clipPath2)" font-family="sans-serif" stroke="none">Minter</text>
    </g>
    <g fill="rgb(255,204,0)" text-rendering="geometricPrecision" shape-rendering="geometricPrecision" transform="matrix(1,0,0,1,-60,-182)" stroke="rgb(255,204,0)">
      <rect x="616" width="234" height="87" y="404" clip-path="url(#clipPath2)" stroke="none"/>
    </g>
    <g text-rendering="geometricPrecision" stroke-miterlimit="1.45" shape-rendering="geometricPrecision" transform="matrix(1,0,0,1,-60,-182)" stroke-linecap="butt">
      <rect fill="none" x="616" width="234" height="87" y="404" clip-path="url(#clipPath2)"/>
      <text x="626.9746" xml:space="preserve" y="452.0352" clip-path="url(#clipPath2)" font-family="sans-serif" stroke="none">High-risk mix of equities and bonds</text>
    </g>
    <g fill="rgb(255,204,0)" text-rendering="geometricPrecision" shape-rendering="geometricPrecision" transform="matrix(1,0,0,1,-60,-182)" stroke="rgb(255,204,0)">
      <rect x="75" width="71" height="66" y="414.5" clip-path="url(#clipPath2)" stroke="none"/>
    </g>
    <g text-rendering="geometricPrecision" stroke-miterlimit="1.45" shape-rendering="geometricPrecision" transform="matrix(1,0,0,1,-60,-182)" stroke-linecap="butt">
      <rect fill="none" x="75" width="71" height="66" y="414.5" clip-path="url(#clipPath2)"/>
      <text x="87.1562" xml:space="preserve" y="452.0352" clip-path="url(#clipPath2)" font-family="sans-serif" stroke="none">Investor</text>
      <path fill="none" d="M373 240.5 L154 240.5" clip-path="url(#clipPath2)"/>
      <path d="M146 240.5 L158 245.5 L155 240.5 L158 235.5 Z" clip-path="url(#clipPath2)" stroke="none"/>
      <path fill="none" d="M146 240.5 L365 240.5" clip-path="url(#clipPath2)"/>
      <path d="M373 240.5 L361 235.5 L364 240.5 L361 245.5 Z" clip-path="url(#clipPath2)" stroke="none"/>
      <text x="176.2776" xml:space="preserve" y="215.0352" clip-path="url(#clipPath2)" font-family="sans-serif" stroke="none">Send USD, receive UnstableCoin</text>
      <path fill="none" d="M477 240.5 L608 240.5" clip-path="url(#clipPath2)"/>
      <path d="M616 240.5 L604 235.5 L607 240.5 L604 245.5 Z" clip-path="url(#clipPath2)" stroke="none"/>
      <text x="515.5156" xml:space="preserve" y="215.0352" clip-path="url(#clipPath2)" font-family="sans-serif" stroke="none">Invest USD</text>
      <path fill="none" d="M616 447.5 L485 447.5" clip-path="url(#clipPath2)"/>
      <path d="M477 447.5 L489 452.5 L486 447.5 L489 442.5 Z" clip-path="url(#clipPath2)" stroke="none"/>
      <text x="505.7158" xml:space="preserve" y="422.0352" clip-path="url(#clipPath2)" font-family="sans-serif" stroke="none">Withdraw USD</text>
      <path fill="none" d="M373 447.5 L153.9904 447.5" clip-path="url(#clipPath2)"/>
      <path d="M145.9904 447.5 L157.9904 452.5 L154.9904 447.5 L157.9904 442.5 Z" clip-path="url(#clipPath2)" stroke="none"/>
      <path fill="none" d="M146 447.5 L365 447.5" clip-path="url(#clipPath2)"/>
      <path d="M373 447.5 L361 442.5 L364 447.5 L361 452.5 Z" clip-path="url(#clipPath2)" stroke="none"/>
      <text x="166.9072" xml:space="preserve" y="422.0352" clip-path="url(#clipPath2)" font-family="sans-serif" stroke="none">Send UnstableCoin, receive USD</text>
    </g>
  </g>
</svg>
