<?xml version="1.0" encoding="UTF-8" standalone="no"?>
<!-- Created with Inkscape (http://www.inkscape.org/) -->

<svg
   xmlns:dc="http://purl.org/dc/elements/1.1/"
   xmlns:cc="http://creativecommons.org/ns#"
   xmlns:rdf="http://www.w3.org/1999/02/22-rdf-syntax-ns#"
   xmlns:svg="http://www.w3.org/2000/svg"
   xmlns="http://www.w3.org/2000/svg"
   xmlns:sodipodi="http://sodipodi.sourceforge.net/DTD/sodipodi-0.dtd"
   xmlns:inkscape="http://www.inkscape.org/namespaces/inkscape"
   width="190"
   height="389"
   id="svg2"
   version="1.1"
   inkscape:version="0.47 r22583"
   sodipodi:docname="New document 1">
  <defs
     id="defs4">
    <inkscape:perspective
       sodipodi:type="inkscape:persp3d"
       inkscape:vp_x="0 : 526.18109 : 1"
       inkscape:vp_y="0 : 1000 : 0"
       inkscape:vp_z="744.09448 : 526.18109 : 1"
       inkscape:persp3d-origin="372.04724 : 350.78739 : 1"
       id="perspective10" />
  </defs>
  <sodipodi:namedview
     id="base"
     pagecolor="#ffffff"
     bordercolor="#666666"
     borderopacity="1.0"
     inkscape:pageopacity="0.0"
     inkscape:pageshadow="2"
     inkscape:zoom="1"
     inkscape:cx="235.5"
     inkscape:cy="126.07143"
     inkscape:document-units="px"
     inkscape:current-layer="layer1"
     showgrid="false"
     inkscape:window-width="1920"
     inkscape:window-height="1124"
     inkscape:window-x="1920"
     inkscape:window-y="25"
     inkscape:window-maximized="1" />
  <metadata
     id="metadata7">
    <rdf:RDF>
      <cc:Work
         rdf:about="">
        <dc:format>image/svg+xml</dc:format>
        <dc:type
           rdf:resource="http://purl.org/dc/dcmitype/StillImage" />
        <dc:title></dc:title>
      </cc:Work>
    </rdf:RDF>
  </metadata>
  <g
     inkscape:label="Layer 1"
     inkscape:groupmode="layer"
     id="layer1"
     transform="translate(-139.5,-280.86218)">
    <path
       style="fill:none;stroke:#000000;stroke-width:1px;stroke-linecap:butt;stroke-linejoin:miter;stroke-opacity:1"
       d="m 149,633.36218 c 128.88991,-75.61543 29.78829,-229.91531 180,-290"
       id="path2824" />
    <path
       style="fill:none;stroke:#000000;stroke-width:1px;stroke-linecap:butt;stroke-linejoin:miter;stroke-opacity:1"
       d="m 248,669.36218 c -10.8533,-136.01002 -64.60241,-249.98793 -37,-388"
       id="path2826" />
    <path
       style="fill:none;stroke:#000000;stroke-width:1px;stroke-linecap:butt;stroke-linejoin:miter;stroke-opacity:1"
       d="m 181,385.36218 c 6.95837,-1.43419 5.32588,-3.14057 7,-9"
       id="path2828" />
    <path
       style="fill:none;stroke:#000000;stroke-width:1px;stroke-linecap:butt;stroke-linejoin:miter;stroke-opacity:1"
       d="m 243,354.36218 c 5.23971,-8.33268 11.01132,-17.01509 17,-25"
       id="path2830" />
    <path
       style="fill:none;stroke:#000000;stroke-width:1px;stroke-linecap:butt;stroke-linejoin:miter;stroke-opacity:1"
       d="m 299,518.36218 c -2.79873,-12.98199 -4.7791,-26.11638 -8,-39"
       id="path2832" />
    <path
       style="fill:none;stroke:#000000;stroke-width:1px;stroke-linecap:butt;stroke-linejoin:miter;stroke-opacity:1"
       d="m 140,526.36218 c 3.40991,-21.33352 6.66882,-43.34736 10,-65"
       id="path2834" />
    <path
       style="fill:none;stroke:#000000;stroke-width:1px;stroke-linecap:butt;stroke-linejoin:miter;stroke-opacity:1"
       d="m 185,642.36218 c -3.54378,2.39654 -7.31309,3.77103 -11,5"
       id="path2836" />
    <path
       style="fill:none;stroke:#000000;stroke-width:1px;stroke-linecap:butt;stroke-linejoin:miter;stroke-opacity:1"
       d="m 287,593.36218 c 6.33333,0 12.66667,0 19,0"
       id="path2838" />
    <path
       style="fill:none;stroke:#000000;stroke-width:1px;stroke-linecap:butt;stroke-linejoin:miter;stroke-opacity:1"
       d="m 157,587.36218 16,-14"
       id="path2840" />
    <path
       sodipodi:type="arc"
       style="fill:#000000;fill-opacity:1;stroke:#000000;stroke-width:1.12600005;stroke-miterlimit:4;stroke-opacity:1;stroke-dasharray:none;stroke-dashoffset:0"
       id="path2842"
       sodipodi:cx="154"
       sodipodi:cy="426.86218"
       sodipodi:rx="4"
       sodipodi:ry="6.5"
       d="m 158,426.86218 c 0,3.58985 -1.79086,6.5 -4,6.5 -2.20914,0 -4,-2.91015 -4,-6.5 0,-3.58985 1.79086,-6.5 4,-6.5 2.20914,0 4,2.91015 4,6.5 z" />
    <path
       sodipodi:type="arc"
       style="fill:#000000;fill-opacity:1;stroke:#000000;stroke-width:1.12600005;stroke-miterlimit:4;stroke-opacity:1;stroke-dasharray:none;stroke-dashoffset:0"
       id="path2844"
       sodipodi:cx="235"
       sodipodi:cy="420.86218"
       sodipodi:rx="4"
       sodipodi:ry="9.5"
       d="m 239,420.86218 c 0,5.24671 -1.79086,9.5 -4,9.5 -2.20914,0 -4,-4.25329 -4,-9.5 0,-5.2467 1.79086,-9.5 4,-9.5 2.20914,0 4,4.2533 4,9.5 z" />
    <path
       sodipodi:type="arc"
       style="fill:#000000;fill-opacity:1;stroke:#000000;stroke-width:1.12600005;stroke-miterlimit:4;stroke-opacity:1;stroke-dasharray:none;stroke-dashoffset:0"
       id="path2846"
       sodipodi:cx="256.5"
       sodipodi:cy="518.86218"
       sodipodi:rx="4.5"
       sodipodi:ry="18.5"
       d="m 261,518.86218 c 0,10.21727 -2.01472,18.5 -4.5,18.5 -2.48528,0 -4.5,-8.28273 -4.5,-18.5 0,-10.21727 2.01472,-18.5 4.5,-18.5 2.48528,0 4.5,8.28273 4.5,18.5 z" />
    <path
       sodipodi:type="arc"
       style="fill:#000000;fill-opacity:1;stroke:#000000;stroke-width:1.12600005;stroke-miterlimit:4;stroke-opacity:1;stroke-dasharray:none;stroke-dashoffset:0"
       id="path2848"
       sodipodi:cx="205.5"
       sodipodi:cy="614.86218"
       sodipodi:rx="8.5"
       sodipodi:ry="10.5"
       d="m 214,614.86218 c 0,5.79899 -3.80558,10.5 -8.5,10.5 -4.69442,0 -8.5,-4.70101 -8.5,-10.5 0,-5.79899 3.80558,-10.5 8.5,-10.5 4.69442,0 8.5,4.70101 8.5,10.5 z" />
  </g>
</svg>
